<svg xmlns="http://www.w3.org/2000/svg" viewBox="0 0 512 512">
  <rect width="512" height="512" rx="96" fill="#3d4a3f"/>
  <path d="M108 306c42-6 76-26 112-62 31-31 59-47 88-39 22 6 38 24 57 45 25 29 55 47 94 50v83H108z" fill="#f7f4ee"/>
  <path d="M116 305c48-8 88-35 125-73 28-29 54-42 79-36 22 5 38 25 56 46" fill="none" stroke="#c8a16a" stroke-width="22" stroke-linecap="round"/>
  <path d="M142 184c47-60 119-96 193-85 55 9 100 38 130 80" fill="none" stroke="#c8a16a" stroke-width="13" stroke-linecap="round" opacity=".95"/>
  <circle cx="258" cy="321" r="14" fill="#c8a16a"/>
</svg>
